<?xml version="1.0" encoding="iso-8859-1"?>
<!-- Generator: Adobe Illustrator 19.0.0, SVG Export Plug-In . SVG Version: 6.00 Build 0)  -->
<svg version="1.1" id="Capa_1" xmlns="http://www.w3.org/2000/svg" xmlns:xlink="http://www.w3.org/1999/xlink" x="0px" y="0px"
	 viewBox="0 0 512 512" style="enable-background:new 0 0 512 512;" xml:space="preserve">
<g>
	<g>
		<g>
			<path d="M405.229,105.125c-0.563-3.813-3.125-7.021-6.729-8.406l-2.063-0.802C383.625,90.958,369.125,85.333,352,85.333
				c-24.771,0-43.896,6.792-60.75,12.781c-8.384,2.982-16.001,5.573-23.391,7.111c2.776-24.26,12.793-41.324,22.224-56.204
				c2.563-4.063,5.021-7.948,7.188-11.729c2.917-5.125,1.125-11.635-3.979-14.552c-5.063-2.938-11.625-1.177-14.563,3.969
				c-2,3.521-4.292,7.125-6.667,10.896c-5.065,7.988-10.6,16.905-15.353,27.288C238.79,22.152,199.242,0,160,0
				c-5.896,0-10.667,4.771-10.667,10.667c0,31.349,8.202,56.37,24.467,75.574c-4.453-0.466-8.938-0.908-13.801-0.908
				c-17.125,0-31.625,5.625-44.438,10.583l-2.063,0.802c-3.604,1.385-6.167,4.594-6.729,8.406c-0.542,3.813,1,7.625,4.042,9.979
				c30.313,23.448,38.521,35.667,38.521,76.896c0,39.313-9.5,68.292-29.021,88.604c-3.979,4.135-3.979,10.656,0,14.792
				c19.521,20.313,29.021,49.292,29.021,88.604c0,34.125-16.146,61.635-29.688,78.708c-3.521,4.438-2.958,10.865,1.292,14.625
				C146.292,499.688,175.313,512,202.667,512c18.875,0,28.563-3.677,36.354-6.646c5.521-2.094,9.875-3.75,16.583-4.031
				c7.5,0.281,11.854,1.938,17.375,4.031c7.792,2.969,17.479,6.646,36.354,6.646c27.354,0,56.375-12.313,81.729-34.667
				c4.25-3.76,4.813-10.188,1.292-14.625c-13.542-17.073-29.688-44.583-29.688-78.708c0-39.313,9.5-68.292,29.021-88.604
				c3.979-4.135,3.979-10.656,0-14.792c-19.521-20.313-29.021-49.292-29.021-88.604c0-41.229,8.208-53.448,38.521-76.896
				C404.229,112.75,405.771,108.938,405.229,105.125z M171.083,22.063c34.646,4.552,68.5,30.635,73.583,81.688
				C197.625,91.125,174.438,65.365,171.083,22.063z M369.792,288c-19.125,23.76-28.458,55.281-28.458,96
				c0,28.76,9.667,57.469,28.042,83.583c-19.438,14.948-40.458,23.083-60.042,23.083c-14.958,0-21.667-2.552-28.771-5.25
				c-6.167-2.344-13.167-5-24.958-5.406c-11,0.406-18,3.063-24.167,5.406c-7.104,2.698-13.813,5.25-28.771,5.25
				c-19.583,0-40.604-8.135-60.042-23.083C161,441.469,170.667,412.76,170.667,384c0-40.719-9.334-72.24-28.458-96
				c19.125-23.76,28.458-55.281,28.458-96c0-22.323-2.686-38.15-8.76-51.405c5.746,4.191,11.547,9.051,17.469,14.03
				C200.208,172.146,223.854,192,256,192c32.167,0,55.792-19.865,76.646-37.385c5.913-4.967,11.703-9.816,17.439-14.001
				c-6.068,13.251-8.751,29.076-8.751,51.387C341.333,232.719,350.667,264.24,369.792,288z M318.917,138.281
				c-18.938,15.927-38.542,32.385-62.917,32.385s-43.958-16.458-62.896-32.375c-14.822-12.46-30.086-25.107-47.691-29.703
				c4.736-1.094,9.551-1.922,14.587-1.922c21.083,0,37.625,5.875,53.625,11.552C227.771,123.25,241.146,128,256,128
				s28.229-4.75,42.375-9.781c16-5.677,32.542-11.552,53.625-11.552c5.038,0,9.854,0.828,14.592,1.923
				C349,113.186,333.737,125.831,318.917,138.281z"/>
			<path d="M230.771,267.417c-12.208,4.75-27.771,11.417-32.521,16.167c-8.313,8.313-8.313,21.854,0,30.167
				c4.167,4.156,9.625,6.24,15.083,6.24c5.458,0,10.917-2.083,15.083-6.24c4.75-4.75,11.417-20.313,16.167-32.531
				c1.542-3.938,0.604-8.417-2.396-11.406C239.188,266.813,234.75,265.854,230.771,267.417z"/>
			<path d="M281.208,267.417c-4-1.552-8.417-0.604-11.417,2.396c-3,2.99-3.938,7.469-2.396,11.406
				c4.75,12.219,11.417,27.781,16.167,32.531c4.167,4.156,9.625,6.24,15.083,6.24c5.458,0,10.917-2.083,15.083-6.24
				c8.313-8.313,8.313-21.854,0-30.167C308.979,278.833,293.417,272.167,281.208,267.417z"/>
		</g>
	</g>
</g>
<g>
</g>
<g>
</g>
<g>
</g>
<g>
</g>
<g>
</g>
<g>
</g>
<g>
</g>
<g>
</g>
<g>
</g>
<g>
</g>
<g>
</g>
<g>
</g>
<g>
</g>
<g>
</g>
<g>
</g>
</svg>
