<?xml version="1.0" encoding="iso-8859-1"?>
<!-- Generator: Adobe Illustrator 19.0.0, SVG Export Plug-In . SVG Version: 6.00 Build 0)  -->
<svg version="1.1" id="Layer_1" xmlns="http://www.w3.org/2000/svg" xmlns:xlink="http://www.w3.org/1999/xlink" x="0px" y="0px"
	 viewBox="0 0 511.999 511.999" style="enable-background:new 0 0 511.999 511.999;" xml:space="preserve">
<g>
	<g>
		<path d="M346.535,251.64c-1.018-4.308-5.334-6.972-9.643-5.958c-4.309,1.018-6.977,5.336-5.959,9.645
			c1.367,5.787,2.06,11.767,2.06,17.775c0,26.319-13.11,49.895-33.852,63.848l0.976-1.368c2.571-3.605,1.733-8.611-1.872-11.182
			s-8.611-1.733-11.182,1.872l-17.91,25.112c-1.604,2.25-1.938,5.169-0.88,7.723s3.356,4.382,6.082,4.839l30.421,5.095
			c0.448,0.075,0.894,0.111,1.334,0.111c3.846,0,7.241-2.775,7.897-6.693c0.731-4.366-2.216-8.5-6.582-9.231l-3.306-0.554
			c9.303-5.631,17.644-12.873,24.509-21.439c13.154-16.414,20.398-37.06,20.398-58.134
			C349.024,265.854,348.186,258.633,346.535,251.64z"/>
	</g>
</g>
<g>
	<g>
		<path d="M238.225,348.033c-32.613-7.703-56.021-35.162-58.911-68.044l0.869,1.766c1.395,2.834,4.239,4.478,7.198,4.477
			c1.189,0,2.396-0.266,3.535-0.826c3.972-1.956,5.606-6.761,3.651-10.734l-13.625-27.673c-1.221-2.48-3.633-4.156-6.383-4.435
			c-2.75-0.276-5.45,0.879-7.143,3.063l-18.903,24.374c-2.714,3.498-2.077,8.534,1.422,11.247c3.498,2.714,8.534,2.078,11.247-1.422
			l1.899-2.449c0.91,19.576,8.03,38.555,20.291,53.857c12.951,16.161,31.122,27.668,51.168,32.403
			c0.62,0.146,1.239,0.216,1.849,0.216c3.632,0,6.924-2.486,7.795-6.175C245.202,353.369,242.534,349.051,238.225,348.033z"/>
	</g>
</g>
<g>
	<g>
		<path d="M335.192,225.193l-5.322-30.382c-0.763-4.361-4.915-7.276-9.28-6.514c-4.361,0.764-7.277,4.919-6.514,9.28l0.575,3.28
			c-16.404-13.376-36.931-20.782-58.652-20.782c-28.827,0-55.555,13.04-73.328,35.777c-2.727,3.489-2.11,8.527,1.379,11.253
			c1.467,1.146,3.206,1.702,4.932,1.702c2.383,0,4.741-1.057,6.321-3.079c14.714-18.822,36.837-29.618,60.696-29.618
			c16.52,0,32.205,5.179,45.177,14.61l-1.305-0.375c-4.255-1.225-8.697,1.232-9.92,5.488c-1.225,4.254,1.232,8.697,5.488,9.92
			l29.641,8.529c0.73,0.211,1.475,0.312,2.216,0.312c1.953,0,3.868-0.714,5.358-2.053
			C334.708,230.693,335.668,227.916,335.192,225.193z"/>
	</g>
</g>
<g>
	<g>
		<path d="M379.583,68.884c-4.442-4.715-16.037-17.621-22.35-30.247c-1.357-2.716-4.133-4.432-7.17-4.432H241.325L192.038,1.347
			c-3.683-2.455-8.662-1.461-11.116,2.223c-2.456,3.683-1.461,8.661,2.223,11.116l29.277,19.518h-50.485
			c-3.037,0-5.813,1.716-7.17,4.432c-6.293,12.585-17.907,25.523-22.354,30.249c-7.271,1.75-12.697,8.291-12.697,16.092v376.25
			c0,7.802,5.428,14.345,12.701,16.093c4.442,4.715,16.037,17.621,22.351,30.247c1.357,2.716,4.133,4.432,7.17,4.432h188.125
			c3.037,0,5.813-1.716,7.17-4.432c6.293-12.586,17.907-25.524,22.354-30.249c7.272-1.75,12.697-8.291,12.697-16.092V84.977
			C392.283,77.174,386.857,70.632,379.583,68.884z M166.726,50.238h178.548c3.775,6.586,8.407,12.913,12.643,18.171H154.084
			C158.319,63.151,162.952,56.825,166.726,50.238z M345.273,495.966H166.726c-3.775-6.586-8.407-12.913-12.643-18.171h203.832
			C353.681,483.053,349.049,489.379,345.273,495.966z M376.25,461.227c0,0.295-0.239,0.534-0.534,0.534H136.284
			c-0.295,0-0.534-0.239-0.534-0.534V84.977c0-0.295,0.239-0.534,0.534-0.534h239.432c0.295,0,0.534,0.239,0.534,0.534V461.227z"/>
	</g>
</g>
<g>
</g>
<g>
</g>
<g>
</g>
<g>
</g>
<g>
</g>
<g>
</g>
<g>
</g>
<g>
</g>
<g>
</g>
<g>
</g>
<g>
</g>
<g>
</g>
<g>
</g>
<g>
</g>
<g>
</g>
</svg>
