<svg height="512pt" viewBox="-77 0 512 512" width="512pt" xmlns="http://www.w3.org/2000/svg"><path d="m349.609375 512h-341.074219c-4.710937 0-8.535156-3.824219-8.535156-8.535156v-494.929688c0-4.710937 3.824219-8.535156 8.535156-8.535156h264.53125c2.269532 0 4.445313.90625 6.042969 2.507812l76.542969 76.800782c1.59375 1.605468 2.492187 3.773437 2.492187 6.023437v418.132813c0 4.710937-3.824219 8.535156-8.535156 8.535156zm-332.542969-17.066406h324.011719v-406.066406l-71.5625-71.800782h-252.449219zm0 0"/><path d="m349.609375 93.867188h-76.542969c-4.710937 0-8.53125-3.824219-8.53125-8.535157v-76.796875c0-3.457031 2.082032-6.574218 5.273438-7.886718 3.199218-1.304688 6.867187-.5820318 9.300781 1.859374l76.542969 76.800782c2.433594 2.441406 3.15625 6.109375 1.835937 9.292968-1.316406 3.191407-4.429687 5.265626-7.878906 5.265626zm-68.007813-17.066407h47.460938l-47.460938-47.617187zm0 0"/><path d="m127.742188 426.667969h-68.265626c-4.710937 0-8.53125-3.824219-8.53125-8.535157 0-4.710937 3.820313-8.53125 8.53125-8.53125h68.265626c4.710937 0 8.535156 3.820313 8.535156 8.53125 0 4.710938-3.824219 8.535157-8.535156 8.535157zm0 0"/><path d="m247.210938 426.667969h-85.332032c-4.710937 0-8.535156-3.824219-8.535156-8.535157 0-4.710937 3.824219-8.53125 8.535156-8.53125h85.332032c4.710937 0 8.53125 3.820313 8.53125 8.53125 0 4.710938-3.820313 8.535157-8.53125 8.535157zm0 0"/><path d="m221.609375 460.800781h-93.867187c-4.707032 0-8.53125-3.824219-8.53125-8.535156s3.824218-8.53125 8.53125-8.53125h93.867187c4.710937 0 8.535156 3.820313 8.535156 8.53125s-3.824219 8.535156-8.535156 8.535156zm0 0"/><path d="m298.410156 426.667969h-17.066406c-4.710938 0-8.53125-3.824219-8.53125-8.535157 0-4.710937 3.820312-8.53125 8.53125-8.53125h17.066406c4.710938 0 8.535156 3.820313 8.535156 8.53125 0 4.710938-3.824218 8.535157-8.535156 8.535157zm0 0"/><path d="m298.410156 460.800781h-42.667968c-4.707032 0-8.53125-3.824219-8.53125-8.535156s3.824218-8.53125 8.53125-8.53125h42.667968c4.710938 0 8.535156 3.820313 8.535156 8.53125s-3.824218 8.535156-8.535156 8.535156zm0 0"/><path d="m93.609375 460.800781h-34.132813c-4.710937 0-8.53125-3.824219-8.53125-8.535156s3.820313-8.53125 8.53125-8.53125h34.132813c4.710937 0 8.535156 3.820313 8.535156 8.53125s-3.824219 8.535156-8.535156 8.535156zm0 0"/><path d="m298.410156 392.535156h-68.265625c-4.710937 0-8.535156-3.824218-8.535156-8.535156s3.824219-8.535156 8.535156-8.535156h68.265625c4.710938 0 8.535156 3.824218 8.535156 8.535156s-3.824218 8.535156-8.535156 8.535156zm0 0"/><path d="m196.011719 392.535156h-85.335938c-4.707031 0-8.53125-3.824218-8.53125-8.535156s3.824219-8.535156 8.53125-8.535156h85.335938c4.710937 0 8.53125 3.824218 8.53125 8.535156s-3.820313 8.535156-8.53125 8.535156zm0 0"/><path d="m230.144531 358.398438h-93.867187c-4.710938 0-8.535156-3.820313-8.535156-8.53125 0-4.710938 3.824218-8.535157 8.535156-8.535157h93.867187c4.710938 0 8.53125 3.824219 8.53125 8.535157 0 4.710937-3.820312 8.53125-8.53125 8.53125zm0 0"/><path d="m76.542969 392.535156h-17.066407c-4.710937 0-8.53125-3.824218-8.53125-8.535156s3.820313-8.535156 8.53125-8.535156h17.066407c4.710937 0 8.535156 3.824218 8.535156 8.535156s-3.824219 8.535156-8.535156 8.535156zm0 0"/><path d="m102.144531 358.398438h-42.667969c-4.710937 0-8.53125-3.820313-8.53125-8.53125 0-4.710938 3.820313-8.535157 8.53125-8.535157h42.667969c4.710938 0 8.53125 3.824219 8.53125 8.535157 0 4.710937-3.820312 8.53125-8.53125 8.53125zm0 0"/><path d="m298.410156 358.398438h-34.132812c-4.710938 0-8.535156-3.820313-8.535156-8.53125 0-4.710938 3.824218-8.535157 8.535156-8.535157h34.132812c4.710938 0 8.535156 3.824219 8.535156 8.535157 0 4.710937-3.824218 8.53125-8.535156 8.53125zm0 0"/><path d="m153.378906 179.234375h-34.132812c-3.234375 0-6.1875-1.828125-7.636719-4.71875l-17.070313-34.132813c-2.105468-4.214843-.398437-9.34375 3.816407-11.453124 4.207031-2.125 9.34375-.402344 11.453125 3.816406l14.703125 29.414062h28.859375c4.707031 0 8.53125 3.820313 8.53125 8.53125 0 4.710938-3.8125 8.542969-8.523438 8.542969zm0 0"/><path d="m119.246094 179.234375c-.992188 0-2.007813-.179687-2.996094-.546875-4.414062-1.65625-6.648438-6.578125-4.992188-10.992188 9.292969-24.769531 20.753907-44.832031 34.066407-59.605468 7.960937-8.839844 19.316406-14.027344 31.136719-14.222656 11.886718-.207032 23.058593 4.445312 31.359374 13.0625 6.792969 7.050781 13.738282 15.292968 20.652344 24.507812 2.824219 3.773438 2.0625 9.125-1.707031 11.949219-3.765625 2.839843-9.113281 2.0625-11.949219-1.707031-6.484375-8.652344-12.976562-16.359376-19.285156-22.914063-4.980469-5.167969-11.671875-8.027344-18.78125-7.832031-7.210938.121094-13.867188 3.164062-18.746094 8.585937-11.878906 13.183594-22.230468 31.410157-30.761718 54.175781-1.289063 3.421876-4.542969 5.539063-7.996094 5.539063zm0 0"/><path d="m161.910156 281.632812c-2.183594 0-4.367187-.835937-6.03125-2.5l-25.601562-25.597656c-3.335938-3.335937-3.335938-8.730468 0-12.066406 3.328125-3.335938 8.738281-3.335938 12.066406 0l25.601562 25.597656c3.335938 3.335938 3.335938 8.730469 0 12.066406-1.664062 1.664063-3.847656 2.5-6.035156 2.5zm0 0"/><path d="m136.3125 307.234375c-2.1875 0-4.371094-.835937-6.035156-2.5-3.335938-3.335937-3.335938-8.730469 0-12.066406l25.601562-25.601563c3.328125-3.335937 8.738282-3.335937 12.066406 0 3.335938 3.335938 3.335938 8.730469 0 12.066406l-25.601562 25.601563c-1.664062 1.664063-3.847656 2.5-6.03125 2.5zm0 0"/><path d="m223.113281 203.375c-2.183593 0-4.371093-.835938-6.035156-2.5-3.335937-3.335938-3.335937-8.730469 0-12.066406l24.132813-24.140625c2.289062-2.277344 5.667968-3.082031 8.730468-2.066407l36.207032 12.074219c4.472656 1.496094 6.886718 6.324219 5.394531 10.796875-1.496094 4.472656-6.332031 6.894532-10.796875 5.390625l-31.199219-10.398437-20.402344 20.410156c-1.664062 1.664062-3.847656 2.5-6.03125 2.5zm0 0"/><path d="m161.910156 281.632812h-51.003906c-9.605469 0-18.394531-2.421874-25.429688-7.011718-9.34375-6.101563-15.085937-14.695313-16.605468-24.84375-3.582032-23.910156 17.332031-49.328125 18.21875-50.40625 3.011718-3.617188 8.382812-4.101563 12.007812-1.089844s4.121094 8.378906 1.117188 12.015625c-4.71875 5.691406-16.511719 23.449219-14.464844 36.980469.8125 5.335937 3.773438 9.601562 9.054688 13.050781 5.367187 3.503906 11.71875 4.238281 16.101562 4.238281h51.003906c4.710938 0 8.535156 3.824219 8.535156 8.535156 0 4.710938-3.824218 8.53125-8.535156 8.53125zm0 0"/><path d="m230.742188 281.601562c-.238282 0-.480469 0-.71875 0h-33.96875c-4.710938 0-8.535157-3.824218-8.535157-8.535156 0-4.710937 3.824219-8.53125 8.535157-8.53125h34.132812c6.296875.03125 12.398438-2.570312 17.21875-7.546875 5.828125-6.03125 9.0625-14.511719 8.636719-22.6875-.921875-17.726562-6.496094-37.933593-16.554688-60.074219-1.953125-4.285156-.050781-9.34375 4.242188-11.300781 4.289062-1.945312 9.351562-.050781 11.296875 4.242188 10.949218 24.089843 17.023437 46.378906 18.054687 66.234375.675781 12.820312-4.339843 26.070312-13.402343 35.441406-7.988282 8.25-18.238282 12.757812-28.9375 12.757812zm0 0"/></svg>