<?xml version="1.0" encoding="iso-8859-1"?>
<!-- Generator: Adobe Illustrator 17.1.0, SVG Export Plug-In . SVG Version: 6.00 Build 0)  -->
<!DOCTYPE svg PUBLIC "-//W3C//DTD SVG 1.1//EN" "http://www.w3.org/Graphics/SVG/1.1/DTD/svg11.dtd">
<svg version="1.1" id="Capa_1" xmlns="http://www.w3.org/2000/svg" xmlns:xlink="http://www.w3.org/1999/xlink" x="0px" y="0px"
	 viewBox="0 0 446.811 446.811" style="enable-background:new 0 0 446.811 446.811;" xml:space="preserve">
<path d="M390.558,162.89c-14.181-19.603-36.184-31.801-65.398-36.254c-5.11-0.779-10.48-1.174-15.962-1.174
	c-27.588,0-54.001,9.916-70.565,16.38c0.585-5.484,1.769-11.91,4.032-18.72c0.655-1.97,1.382-3.892,2.167-5.779
	c6.657,1.161,13.946,1.828,21.295,1.828c0.001,0,0.001,0,0.003,0c13.944,0,34.631-2.379,53.995-13.71
	c24.971-14.615,38.257-36.252,43.953-47.85c8.612-17.531,11.063-34.167,6.243-42.384C365.056,6.261,345.876,0,323.678,0
	c-14.277,0-35.706,2.581-56.715,14.875c-28.403,16.622-44.495,45.441-50.083,66.869c-1.115,4.274-2.486,11.03-1.961,16.802
	c-2.236,4.679-4.036,9.232-5.466,13.535c-3.42,10.29-5.094,19.919-5.833,28.056c-16.551-6.334-40.813-14.676-66.018-14.676
	c-5.474,0-10.84,0.395-15.95,1.174c-29.215,4.454-51.219,16.651-65.399,36.254c-14.667,20.277-19.988,47.797-14.98,77.492
	c4.803,28.472,14.571,53.082,24.018,76.88c7.666,19.311,14.906,37.551,19.666,57.638c5.915,24.962,22.137,45.029,46.912,58.032
	c20.876,10.956,41.799,13.879,50.871,13.879c7.614,0,14.852-1.744,21.852-3.43c6.551-1.578,12.738-3.069,18.814-3.069
	c8.339,0,16,1.82,23.409,3.581c6.314,1.5,12.278,2.917,17.868,2.917c8.973,0,29.696-2.924,50.457-13.885
	c24.647-13.012,40.8-33.078,46.711-58.025c4.761-20.084,12.001-38.323,19.666-57.632c9.448-23.801,19.218-48.412,24.021-76.886
	C410.546,210.688,405.225,183.167,390.558,162.89z M209.926,365.985l-53.348-0.367l-5.393-8.862l-21-36.754l10.952-19.887
	l-11.53-6.953l40.884-9.956l9.508,40.24l-11-6.552l-8.837,15.471l50.016,0.418L209.926,365.985z M223.181,248.346l11.154-6.287
	l-9.03-15.359l-25.229,43.188l-28.682-16.726l23.211-39.769c2.285-3.899,4.099-6.609,4.099-6.609l52.232,0.053l11.81,19.39
	l11.766-6.547l-11.689,40.423L223.181,248.346z M311.62,326.275l-22.065,36.125h-22.704l-0.529,13.454l-28.443-31.01l30.662-27.74
	l-0.432,12.796l17.815,0.277l-23.761-44.013l29.205-15.795l25.836,46.417L311.62,326.275z"/>
<g>
</g>
<g>
</g>
<g>
</g>
<g>
</g>
<g>
</g>
<g>
</g>
<g>
</g>
<g>
</g>
<g>
</g>
<g>
</g>
<g>
</g>
<g>
</g>
<g>
</g>
<g>
</g>
<g>
</g>
</svg>
