<svg enable-background="new 0 0 512 512" fill="#03d400" height="512" viewBox="0 0 512 512" width="512" xmlns="http://www.w3.org/2000/svg"><path d="m120 216v16l20.364 224h171.636v16h-170.182l1.355 14.905c.468 5.151 4.787 9.095 9.959 9.095h205.736c5.172 0 9.491-3.944 9.959-9.095l1.355-14.905h-42.182v-16h43.636l20.364-224v-16zm32 24h16v16h-16zm96 176h-59.181c-7.563 0-14.317-3.922-18.065-10.491s-3.689-14.379.159-20.891l24.001-40.617-10.915-.001.002-16 24.932.003c2.873 0 5.524 1.541 6.948 4.035 1.423 2.495 1.4 5.562-.062 8.035l-31.132 52.685c-1.28 2.166-.452 4.093-.036 4.821.415.728 1.653 2.421 4.168 2.421h59.181zm8-136c-.824 0-2.875.23-4.133 2.358l-23.015 38.947-13.774-8.139 23.015-38.948c3.781-6.398 10.475-10.218 17.907-10.218s14.126 3.82 17.907 10.218c.054.091.106.184.156.276l14.666 27.229 5.415-8.121 13.312 8.875-12.8 19.2c-1.488 2.231-3.989 3.562-6.655 3.562-.125 0-.25-.003-.376-.009-2.805-.132-5.336-1.725-6.668-4.197l-20.888-38.781c-1.263-2.029-3.259-2.252-4.069-2.252zm82.035 125.509c-3.748 6.569-10.502 10.491-18.066 10.491h-33.021l4.508 6.763-13.312 8.875-12.801-19.2c-1.637-2.454-1.79-5.611-.397-8.212 1.393-2.602 4.104-4.226 7.054-4.226h47.969c2.516 0 3.754-1.693 4.169-2.421.416-.729 1.244-2.655-.036-4.82l-30.184-51.082 13.774-8.139 30.184 51.081c3.849 6.511 3.908 14.32.159 20.89zm21.965-149.509h-16v-16h16z"/><path d="m153.123 144 6.898-96.57c.298-4.187 3.782-7.43 7.979-7.43h32v16h-24.551l-6.286 88h173.674l-6.286-88h-120.551v-16h128c4.197 0 7.681 3.243 7.979 7.43l6.898 96.57h25.123v-8l-6.755-101.33c-.7-10.506-9.426-18.67-19.956-18.67h-202.578c-10.529 0-19.255 8.164-19.956 18.67l-6.755 101.33v8z"/><path d="m406 160h-300c-5.523 0-10 4.477-10 10v30h320v-30c0-5.523-4.477-10-10-10z"/></svg>